<svg width="148" height="48" viewBox="0 0 148 48" fill="none" xmlns="http://www.w3.org/2000/svg">
<g clip-path="url(#clip0_2638_895)">
<path d="M11.3839 11.3042H13.0905V37.4323C13.0905 43.2176 8.6136 47.1212 0 47.1212V41.6271C3.69854 41.6271 5.54637 40.0851 5.54637 36.9497V11.3042H11.3839ZM6.37372 7.06082C5.98085 6.68122 5.66865 6.22758 5.45548 5.72662C5.24231 5.22567 5.13249 4.68753 5.13249 4.14389C5.13249 3.60025 5.24231 3.06211 5.45548 2.56115C5.66865 2.0602 5.98085 1.60656 6.37372 1.22695C6.75694 0.837796 7.21489 0.528535 7.72061 0.317377C8.22634 0.10622 8.76962 -0.00256348 9.31843 -0.00256348C9.86725 -0.00256348 10.4105 0.10622 10.9162 0.317377C11.422 0.528535 11.8799 0.837796 12.2631 1.22695C12.656 1.60656 12.9682 2.0602 13.1814 2.56115C13.3946 3.06211 13.5044 3.60025 13.5044 4.14389C13.5044 4.68753 13.3946 5.22567 13.1814 5.72662C12.9682 6.22758 12.656 6.68122 12.2631 7.06082C11.8799 7.44998 11.422 7.75924 10.9162 7.9704C10.4105 8.18156 9.86725 8.29034 9.31843 8.29034C8.76962 8.29034 8.22634 8.18156 7.72061 7.9704C7.21489 7.75924 6.75694 7.44998 6.37372 7.06082Z" fill="#F9F7F4"/>
<path d="M34.93 11.3051H42.4741V36.034H34.93V32.4189C33.7879 33.7335 32.3674 34.7826 30.7695 35.4919C29.1717 36.2011 27.4357 36.5529 25.6851 36.5223C20.0378 36.5223 16.2903 33.0528 16.2903 26.5451V11.3108H23.8373V23.7009C23.8373 27.9842 25.541 30.1602 28.9974 30.1602C32.3068 30.1602 34.9329 27.6045 34.9329 22.5416L34.93 11.3051Z" fill="#F9F7F4"/>
<path d="M89.5462 20.8169V36.0483H82.005V23.4183C82.005 19.272 80.3984 17.1999 77.1851 17.2018C74.0718 17.2018 71.3937 19.8032 71.3937 24.8175V36.0483H63.8496V23.4183C63.8496 19.272 62.2439 17.1999 59.0325 17.2018C55.9192 17.2018 53.2411 19.8032 53.2411 24.8175V36.0483H45.697V11.3194H53.2411V14.8859C55.7232 12.1875 58.6434 10.8368 62.0998 10.8368C66.4786 10.8368 69.3066 12.5244 70.6154 15.8997C73.2944 12.5149 76.5067 10.8225 80.2523 10.8225C86.0437 10.8225 89.5462 13.9065 89.5462 20.8169Z" fill="#F9F7F4"/>
<path d="M117.593 14.1977C120.026 16.5107 121.242 19.6433 121.242 23.6467C121.242 27.6502 120.026 30.7856 117.593 33.0472C115.16 35.3601 112.092 36.5166 108.345 36.5166C105.035 36.5166 102.358 35.4563 100.313 33.3356V46.6424H92.7722V11.3051H100.313V13.9636C102.358 11.8448 105.035 10.7844 108.345 10.7825C112.092 10.774 115.16 11.9304 117.593 14.1977ZM113.358 23.6467C113.358 19.2121 110.585 16.2709 106.837 16.2709C103.139 16.2709 100.313 19.0664 100.313 23.6467C100.313 28.227 103.139 31.0226 106.837 31.0226C110.585 31.0226 113.358 28.0814 113.358 23.6467Z" fill="#F9F7F4"/>
</g>
<path d="M148 29.1995L148 35.0394L124.418 35.0394L124.418 29.1995L148 29.1995Z" fill="#1CE7C2"/>
<defs>
<clipPath id="clip0_2638_895">
<rect width="121.242" height="47.1221" fill="white"/>
</clipPath>
</defs>
</svg>
